<svg width="24" height="24" viewBox="0 0 24 24" fill="currentColor" xmlns="http://www.w3.org/2000/svg">
<path fill-rule="evenodd" clip-rule="evenodd" d="M20.5786 14.7219C20.5786 14.2222 20.3802 13.7432 20.0268 13.3904C19.6739 13.0369 19.1949 12.8385 18.6952 12.8385C17.4484 12.8385 15.5474 12.8385 14.3005 12.8385C13.8008 12.8385 13.3218 13.0369 12.969 13.3904C12.6155 13.7432 12.4171 14.2222 12.4171 14.7219V19.1166C12.4171 19.6163 12.6155 20.0953 12.969 20.4482C13.3218 20.8016 13.8008 21 14.3005 21H18.6952C19.1949 21 19.6739 20.8016 20.0268 20.4482C20.3802 20.0953 20.5786 19.6163 20.5786 19.1166V14.7219Z" fill="#7A8699"/>
<path fill-rule="evenodd" clip-rule="evenodd" d="M11.1615 14.7219C11.1615 14.2222 10.9631 13.7432 10.6096 13.3904C10.2568 13.0369 9.7778 12.8385 9.27807 12.8385C8.03124 12.8385 6.13024 12.8385 4.88342 12.8385C4.38369 12.8385 3.90467 13.0369 3.55184 13.3904C3.19839 13.7432 3 14.2222 3 14.7219V19.1166C3 19.6163 3.19839 20.0953 3.55184 20.4482C3.90467 20.8016 4.38369 21 4.88342 21H9.27807C9.7778 21 10.2568 20.8016 10.6096 20.4482C10.9631 20.0953 11.1615 19.6163 11.1615 19.1166V14.7219Z" fill="#7A8699"/>
<path fill-rule="evenodd" clip-rule="evenodd" d="M17.8295 11.4529L20.4487 8.83374C21.1838 8.09858 21.1838 6.90574 20.4487 6.17058L17.8295 3.55137C17.0943 2.81621 15.9015 2.81621 15.1663 3.55137L12.5471 6.17058C11.8119 6.90574 11.8119 8.09858 12.5471 8.83374L15.1663 11.4529C15.9015 12.1881 17.0943 12.1881 17.8295 11.4529Z" fill="#C7CED9"/>
<path fill-rule="evenodd" clip-rule="evenodd" d="M11.1615 5.30484C11.1615 4.8051 10.9631 4.32608 10.6096 3.97326C10.2568 3.6198 9.7778 3.42142 9.27807 3.42142C8.03124 3.42142 6.13024 3.42142 4.88342 3.42142C4.38369 3.42142 3.90467 3.6198 3.55184 3.97326C3.19839 4.32608 3 4.8051 3 5.30484V9.69948C3 10.1992 3.19839 10.6782 3.55184 11.0311C3.90467 11.3845 4.38369 11.5829 4.88342 11.5829H9.27807C9.7778 11.5829 10.2568 11.3845 10.6096 11.0311C10.9631 10.6782 11.1615 10.1992 11.1615 9.69948V5.30484Z" fill="#7A8699"/>
</svg>
