<svg width="29" height="29" viewBox="0 0 29 29" fill="currentColor" xmlns="http://www.w3.org/2000/svg">
<path fill-rule="evenodd" clip-rule="evenodd" d="M10.121 15.2245C10.0521 15.1838 9.9733 15.1816 9.90158 15.2186L9.36228 15.4935C9.27263 15.5392 9.16786 15.5223 9.09614 15.4517L8.54805 14.9036C8.47739 14.8318 8.46051 14.7271 8.50622 14.6374L8.78114 14.0981C8.81805 14.0264 8.81594 13.9477 8.77516 13.8787C8.60782 13.5919 8.47704 13.2797 8.39055 12.951C8.37051 12.8733 8.31672 12.8163 8.24008 12.7914L7.66422 12.604C7.56859 12.573 7.50671 12.4872 7.50671 12.3867V11.6122C7.50671 11.5117 7.56859 11.4259 7.66422 11.3939L8.24008 11.2076C8.31672 11.1826 8.37051 11.126 8.39055 11.0479C8.47739 10.7192 8.60782 10.407 8.77516 10.1202C8.81594 10.0512 8.81805 9.9725 8.78114 9.90078L8.50622 9.36148C8.46051 9.27077 8.47739 9.16706 8.54805 9.09534L9.09614 8.54725C9.16786 8.47659 9.27263 8.45971 9.36228 8.50541L9.90228 8.78034C9.97295 8.81725 10.0517 8.81409 10.1206 8.77436C10.4075 8.60702 10.7197 8.47623 11.0484 8.38975C11.1261 8.36971 11.183 8.31592 11.208 8.23928L11.3954 7.66341C11.4263 7.56779 11.5121 7.50591 11.6127 7.50591H12.3872C12.4888 7.50591 12.5735 7.56779 12.6055 7.66341L12.7918 8.23928C12.8168 8.31592 12.8734 8.36971 12.9514 8.38975C13.2812 8.47659 13.5923 8.60702 13.8792 8.77436C13.9481 8.81409 14.0269 8.81725 14.0986 8.78034L14.6386 8.50541C14.7282 8.45971 14.8319 8.47659 14.9037 8.54725L15.4517 9.09534C15.5224 9.16706 15.5393 9.27077 15.4936 9.36148L15.2187 9.90078C15.1817 9.9725 15.1849 10.0512 15.2246 10.1202C15.392 10.407 15.5228 10.7192 15.6093 11.0479C15.6293 11.1256 15.6831 11.1826 15.7597 11.2076L16.3356 11.3939C16.4312 11.4259 16.4931 11.5113 16.4931 11.6122V12.3867C16.4931 12.4872 16.4312 12.573 16.3356 12.604L15.7597 12.7914C15.6841 12.8163 15.6293 12.8729 15.6093 12.951C15.5224 13.2797 15.392 13.5919 15.2246 13.8787C15.1849 13.9477 15.1817 14.0264 15.2187 14.0971L15.4936 14.6371C15.5393 14.7267 15.5224 14.8315 15.4517 14.9032L14.9037 15.4513C14.8319 15.522 14.7282 15.5388 14.6386 15.4931L14.0986 15.2182C14.0269 15.1813 13.9481 15.1834 13.8792 15.2242C13.5923 15.3915 13.2812 15.5223 12.9514 15.6088C12.8737 15.6288 12.8168 15.6826 12.7918 15.7593L12.6055 16.3351C12.5735 16.4308 12.4888 16.4926 12.3872 16.4926H11.6127C11.5121 16.4926 11.4263 16.4308 11.3954 16.3351L11.208 15.7593C11.183 15.6826 11.1264 15.6288 11.0484 15.6088C10.7197 15.5227 10.4078 15.3919 10.121 15.2245ZM12.0004 14.1034C13.1613 14.1034 14.1031 13.1616 14.1031 11.9996C14.1031 10.8388 13.1613 9.89691 12.0004 9.89691C10.8385 9.89691 9.89666 10.8388 9.89666 11.9996C9.89666 13.1616 10.8385 14.1034 12.0004 14.1034Z" fill="#7A8699"/>
<path fill-rule="evenodd" clip-rule="evenodd" d="M8.74847 18.0975L8.37264 18.8021C8.34663 18.852 8.30584 18.8847 8.25205 18.9009C8.19827 18.916 8.14553 18.91 8.09666 18.8819C6.90872 18.2072 5.91203 17.2334 5.21066 16.0637C4.52792 14.9268 4.12327 13.6063 4.08846 12.1962C4.08635 12.0875 3.9967 12 3.88807 12H3.20181C3.11814 12 3.04747 11.9532 3.01548 11.8766C2.98454 11.7999 3.00036 11.7163 3.05943 11.6583L4.5469 10.1701C4.6246 10.0924 4.75222 10.0924 4.82991 10.1701L6.31774 11.6579C6.37645 11.7156 6.39262 11.7992 6.36169 11.8762C6.32969 11.9529 6.25903 11.9996 6.17536 11.9996H5.49367C5.43777 11.9996 5.3889 12.0207 5.35023 12.0615C5.3105 12.1012 5.29152 12.1501 5.29328 12.2071C5.32914 13.3918 5.67016 14.4972 6.24004 15.4478C6.83314 16.4353 7.67127 17.2576 8.67182 17.8296C8.76569 17.8834 8.79944 18.0019 8.74847 18.0975ZM5.19765 8.37323L5.90219 8.74905C5.99781 8.80003 6.11629 8.76593 6.17043 8.67136C6.74243 7.67185 7.5658 6.83372 8.55229 6.24063C9.50292 5.67074 10.6082 5.32972 11.793 5.29386C11.85 5.29175 11.8985 5.31074 11.9386 5.35082C11.9794 5.38984 12.0005 5.43836 12.0005 5.49426V6.17594C12.0005 6.25856 12.0472 6.33028 12.1242 6.36122C12.2008 6.39321 12.2845 6.37704 12.3425 6.31833L13.8303 4.8305C13.908 4.7528 13.908 4.62518 13.8303 4.54643L12.3422 3.05966C12.2845 3.00095 12.2005 2.98408 12.1238 3.01572C12.0472 3.04771 12.0001 3.11837 12.0001 3.20099V3.88865C12.0001 3.99729 11.9126 4.08694 11.8039 4.08905C10.3938 4.12385 9.07331 4.5285 7.93635 5.21124C6.76634 5.91297 5.79285 6.90931 5.1182 8.09725C5.09042 8.14612 5.08445 8.1978 5.09921 8.25264C5.11503 8.30643 5.14808 8.34721 5.19765 8.37323ZM18.8018 15.6271L18.0984 15.2513C18.0027 15.2003 17.8832 15.2344 17.8294 15.3279C17.2574 16.3285 16.4351 17.1666 15.4476 17.7597C14.4969 18.3296 13.3916 18.6706 12.2068 18.7065C12.1509 18.7086 12.1013 18.6896 12.0613 18.6495C12.0205 18.6105 12.0005 18.562 12.0005 18.5061V17.8244C12.0005 17.7407 11.9526 17.67 11.876 17.6391C11.7994 17.6071 11.7164 17.6233 11.6577 17.682L10.1698 19.1698C10.0921 19.2475 10.0921 19.3751 10.1698 19.4539L11.6577 20.9407C11.7164 20.9994 11.7994 21.0155 11.876 20.9846C11.9526 20.9526 12.0005 20.8819 12.0005 20.7993V20.1117C12.0005 20.003 12.0873 19.9134 12.1959 19.9113C13.6061 19.8765 14.9265 19.4718 16.0635 18.7891C17.2335 18.0873 18.207 17.091 18.8816 15.9031C18.9094 15.8542 18.9154 15.8015 18.9006 15.7477C18.8848 15.6939 18.8518 15.6531 18.8018 15.6271ZM20.9844 12.1244C20.9524 12.0478 20.8817 12 20.7991 12H20.1114C20.0028 12 19.9131 11.9131 19.911 11.8045C19.8762 10.3944 19.4716 9.0739 18.7888 7.93693C18.0871 6.76692 17.0908 5.79344 15.9028 5.11878C15.854 5.09101 15.8023 5.08503 15.7474 5.0998C15.6936 5.11562 15.6529 5.14867 15.6269 5.19859L15.251 5.90207C15.2 5.9977 15.2342 6.11723 15.3287 6.17102C16.3282 6.74302 17.1674 7.56533 17.7594 8.55288C18.3293 9.50351 18.6704 10.6088 18.7062 11.7936C18.7083 11.8495 18.6893 11.8991 18.6493 11.9392C18.6102 11.9799 18.5617 12 18.5058 12H17.8241C17.7415 12 17.6705 12.0478 17.6389 12.1244C17.6069 12.2011 17.623 12.284 17.6818 12.3428L19.1696 13.8306C19.2473 13.9083 19.3749 13.9083 19.4536 13.8306L20.9404 12.3428C20.9995 12.2837 21.0164 12.2011 20.9844 12.1244Z" fill="#C7CED9"/>
</svg>
