<svg width="18" height="18" viewBox="0 0 18 18" fill="currentColor" xmlns="http://www.w3.org/2000/svg">
<path d="M13.8 9.60001C11.4841 9.60001 9.59998 11.4841 9.59998 13.8C9.59998 16.1159 11.4841 18 13.8 18C16.1159 18 18 16.1159 18 13.8C18 11.4841 16.1159 9.60001 13.8 9.60001ZM13.2 15.8484L11.1515 13.8L12 12.9516L13.2 14.1516L15.6 11.7516L16.4484 12.6L13.2 15.8484Z" fill="#C7CED9"/>
<path d="M0 6V15C0 15.9899 0.810059 16.8 1.8 16.8H9.31201C8.73604 15.9419 8.4 14.9101 8.4 13.8C8.4 10.824 10.824 8.4 13.8 8.4C14.9101 8.4 15.9419 8.73604 16.8 9.31201V6H0ZM5.4 13.8H3V12.6H5.4V13.8ZM5.4 10.2H3V9H5.4V10.2ZM16.8 3V4.8H0V3C0 2.01006 0.810059 1.2 1.8 1.2H3.6V0H4.8V1.2H12V0H13.2V1.2H15C15.9899 1.2 16.8 2.01006 16.8 3Z" fill="#7A8699"/>
</svg>
