<svg width="18" height="18" viewBox="0 0 18 18" fill="currentColor" xmlns="http://www.w3.org/2000/svg">
<path fill-rule="evenodd" clip-rule="evenodd" d="M9 3.375C12.105 3.375 14.625 5.89556 14.625 9C14.625 12.1044 12.105 14.625 9 14.625C5.895 14.625 3.375 12.1044 3.375 9C3.375 5.89556 5.895 3.375 9 3.375ZM8.15625 5.90625V8.65041L7.03125 9.77541C6.70219 10.1048 6.70219 10.6394 7.03125 10.9688C7.36031 11.2981 7.89468 11.2981 8.22375 10.9688L9.59625 9.59653C9.75375 9.43847 9.84375 9.22388 9.84375 9V5.90625C9.84375 5.4405 9.46688 5.0625 9 5.0625C8.53312 5.0625 8.15625 5.4405 8.15625 5.90625Z" fill="#7A8699"/>
<path fill-rule="evenodd" clip-rule="evenodd" d="M1.40625 1.125V4.42266C1.40625 4.79306 1.64812 5.12016 2.0025 5.229C2.35687 5.33813 2.73937 5.20341 2.94749 4.89713C4.26374 2.96072 6.48563 1.6875 9 1.6875C13.0359 1.6875 16.3125 4.96406 16.3125 9C16.3125 13.0359 13.0359 16.3125 9 16.3125C4.96406 16.3125 1.6875 13.0359 1.6875 9C1.6875 8.53425 1.31062 8.15625 0.84375 8.15625C0.376875 8.15625 0 8.53425 0 9C0 13.9672 4.03312 18 9 18C13.9669 18 18 13.9672 18 9C18 4.03284 13.9669 0 9 0C6.74156 0 4.67438 0.833906 3.09375 2.21091V1.125C3.09375 0.65925 2.71688 0.28125 2.25 0.28125C1.78313 0.28125 1.40625 0.65925 1.40625 1.125Z" fill="#C7CED9"/>
</svg>
