<svg width="18" height="24" viewBox="0 0 18 24" fill="none" xmlns="http://www.w3.org/2000/svg">
<path d="M8.99998 15.125C11.075 15.125 12.7375 13.45 12.7375 11.375L12.75 3.875C12.75 1.8 11.075 0.125 8.99998 0.125C6.92498 0.125 5.24998 1.8 5.24998 3.875V11.375C5.24998 13.45 6.92498 15.125 8.99998 15.125ZM16.6 11.375C16.075 11.375 15.6375 11.75 15.5625 12.2625C15.1 15.525 12.1625 17.75 8.99998 17.75C5.83748 17.75 2.89998 15.5375 2.43748 12.2625C2.36248 11.75 1.91248 11.375 1.39998 11.375C0.749977 11.375 0.249977 11.95 0.337477 12.5875C0.912477 16.3 4.03748 19.2125 7.74998 19.775V22.625C7.74998 23.3125 8.31248 23.875 8.99998 23.875C9.68748 23.875 10.25 23.3125 10.25 22.625V19.775C13.95 19.2375 17.0875 16.3 17.6625 12.5875C17.75 11.95 17.25 11.375 16.6 11.375Z" fill="#B8BFCC"/>
</svg>

