<svg width="20" height="26" viewBox="0 0 20 26" fill="none" xmlns="http://www.w3.org/2000/svg">
<path d="M19.1127 19.3L17.5002 17.6875V11.4375C17.5002 7.6 15.4502 4.3875 11.8752 3.5375V2.6875C11.8752 1.65 11.0377 0.8125 10.0002 0.8125C8.96269 0.8125 8.12519 1.65 8.12519 2.6875V3.5375C4.53769 4.3875 2.50019 7.5875 2.50019 11.4375V17.6875L0.887686 19.3C0.100186 20.0875 0.650186 21.4375 1.76269 21.4375H18.2252C19.3502 21.4375 19.9002 20.0875 19.1127 19.3ZM15.0002 18.9375H5.00019V11.4375C5.00019 8.3375 6.88769 5.8125 10.0002 5.8125C13.1127 5.8125 15.0002 8.3375 15.0002 11.4375V18.9375ZM10.0002 25.1875C11.3752 25.1875 12.5002 24.0625 12.5002 22.6875H7.50019C7.50019 24.0625 8.61269 25.1875 10.0002 25.1875Z" fill="#B8BFCC"/>
</svg>
