<svg width="18" height="18" viewBox="0 0 18 18" fill="currentColor" xmlns="http://www.w3.org/2000/svg">
<path d="M17.0316 0H0.972014C0.435627 0 0 0.431991 0 0.968406V13.428C0 13.9644 0.435627 14.4 0.972014 14.4H6.11641V15.21H4.04999C3.852 15.21 3.69001 15.3684 3.69001 15.57V16.8588C3.69001 17.0568 3.852 17.2188 4.04999 17.2188H13.95C14.1516 17.2188 14.31 17.0568 14.31 16.8588V15.57C14.31 15.3684 14.1516 15.21 13.95 15.21H11.8836V14.4H17.0316C17.568 14.4 18 13.9644 18 13.428V0.968406C18 0.431991 17.568 0 17.0316 0ZM17.28 11.0232H0.720003V0.968406C0.720003 0.831589 0.835197 0.720003 0.972014 0.720003H17.0316C17.1684 0.720003 17.28 0.831589 17.28 0.968406V11.0232Z" fill="#7A8699"/>
<path d="M5.06513 6.0444H3.62515C3.42355 6.0444 3.26514 6.20282 3.26514 6.40442V9.86762C3.26514 10.0656 3.42355 10.2276 3.62515 10.2276H5.06513C5.26313 10.2276 5.42515 10.0656 5.42515 9.86762V6.40442C5.42515 6.20282 5.26313 6.0444 5.06513 6.0444Z" fill="#C7CED9"/>
<path d="M11.2752 5.77438H9.83521C9.6336 5.77438 9.47522 5.9328 9.47522 6.1344V9.8676C9.47522 10.0656 9.6336 10.2276 9.83521 10.2276H11.2752C11.4732 10.2276 11.6352 10.0656 11.6352 9.8676V6.1344C11.6352 5.9328 11.4732 5.77438 11.2752 5.77438Z" fill="#C7CED9"/>
<path d="M8.1684 4.33441H6.7284C6.5304 4.33441 6.36841 4.49282 6.36841 4.69443V9.86763C6.36841 10.0656 6.5304 10.2276 6.7284 10.2276H8.1684C8.3664 10.2276 8.52839 10.0656 8.52839 9.86763V4.69443C8.52839 4.49282 8.3664 4.33441 8.1684 4.33441Z" fill="#C7CED9"/>
<path d="M14.3784 2.03763H12.9384C12.7404 2.03763 12.5784 2.19962 12.5784 2.39764V9.86762C12.5784 10.0656 12.7404 10.2276 12.9384 10.2276H14.3784C14.5764 10.2276 14.7384 10.0656 14.7384 9.86762V2.39764C14.7384 2.19962 14.5764 2.03763 14.3784 2.03763Z" fill="#C7CED9"/>
</svg>
