<svg width="22" height="22" viewBox="0 0 22 22" fill="none" xmlns="http://www.w3.org/2000/svg">
<path d="M15.6937 13.8188H14.7062L14.3562 13.4813C15.5812 12.0563 16.3187 10.2063 16.3187 8.19376C16.3187 3.70626 12.6812 0.0687561 8.19373 0.0687561C3.70623 0.0687561 0.0687256 3.70626 0.0687256 8.19376C0.0687256 12.6813 3.70623 16.3188 8.19373 16.3188C10.2062 16.3188 12.0562 15.5813 13.4812 14.3563L13.8187 14.7063V15.6938L20.0687 21.9313L21.9312 20.0688L15.6937 13.8188ZM8.19373 13.8188C5.08123 13.8188 2.56873 11.3063 2.56873 8.19376C2.56873 5.08126 5.08123 2.56876 8.19373 2.56876C11.3062 2.56876 13.8187 5.08126 13.8187 8.19376C13.8187 11.3063 11.3062 13.8188 8.19373 13.8188Z" fill="#C7CED9"/>
</svg>

