<svg width="18" height="18" viewBox="0 0 18 18" fill="currentColor" xmlns="http://www.w3.org/2000/svg">
<path d="M16.6209 10.9529L16.2285 10.7265C14.9302 9.97699 14.9271 8.02477 16.2285 7.27348L16.6209 7.04707C17.1247 6.75598 17.2976 6.1098 17.0069 5.60637L15.7297 3.39363C15.4389 2.8902 14.7924 2.71723 14.289 3.00762L13.898 3.23332C12.6089 3.97758 10.9062 3.02098 10.9062 1.50961V1.05469C10.9062 0.473203 10.433 0 9.85155 0H7.29674C6.71526 0 6.24206 0.473203 6.24206 1.05469V1.50961C6.24206 3.02133 4.53874 3.97758 3.24991 3.23332L2.85932 3.00762C2.35448 2.71617 1.71006 2.88879 1.41862 3.39363L0.141041 5.60637C-0.149701 6.1098 0.0236189 6.75598 0.527056 7.04707L0.919752 7.27348C2.21772 8.02301 2.22088 9.97523 0.919752 10.7265L0.527056 10.9529C0.0236189 11.244 -0.149701 11.8902 0.141041 12.3936L1.41862 14.6064C1.70936 15.1098 2.35553 15.2831 2.85932 14.9924L3.24991 14.7667C4.53979 14.0221 6.24206 14.9811 6.24206 16.4904V16.9453C6.24206 17.5268 6.71526 18 7.29674 18H9.85155C10.433 18 10.9062 17.5268 10.9062 16.9453V16.4904C10.9062 14.979 12.6092 14.0224 13.898 14.7667L14.289 14.9924C14.7924 15.2831 15.4389 15.1098 15.7297 14.6064L17.0069 12.3936C17.2983 11.8891 17.1257 11.2447 16.6209 10.9529ZM8.57397 13.5218C6.08069 13.5218 4.05217 11.4933 4.05217 9C4.05217 6.50672 6.08069 4.4782 8.57397 4.4782C11.0676 4.4782 13.0961 6.50672 13.0961 9C13.0961 11.4933 11.0676 13.5218 8.57397 13.5218Z" fill="#7A8699"/>
<path d="M8.57398 5.5329C6.66218 5.5329 5.10687 7.08821 5.10687 9.00001C5.10687 10.9118 6.66218 12.4671 8.57398 12.4671C10.4858 12.4671 12.0414 10.9118 12.0414 9.00001C12.0414 7.08821 10.4858 5.5329 8.57398 5.5329ZM10.4207 8.62067L8.25793 10.2263C8.04312 10.3855 7.74254 10.3591 7.55902 10.1637L6.65726 9.20251C6.45793 8.99016 6.46847 8.65618 6.68082 8.45719C6.89316 8.25786 7.22679 8.26841 7.42613 8.48075L8.00656 9.09915L9.79215 7.77376C10.0259 7.60044 10.3564 7.6493 10.5301 7.88309C10.7034 8.11688 10.6545 8.44735 10.4207 8.62067Z" fill="#C7CED9"/>
</svg>
